<svg xmlns="http://www.w3.org/2000/svg" viewBox="0 0 135.467 135.467" height="512" width="512"><defs><linearGradient x1="324.89" y1="425.81" x2="134.1" y2="425.81" gradientUnits="userSpaceOnUse" spreadMethod="pad" id="b"><stop offset="0" stop-color="#e24329"/><stop offset="1" stop-color="#fca326"/></linearGradient><clipPath clipPathUnits="userSpaceOnUse" id="a"><path d="M142.979 437.272l-8.88-22.914h84.45l-7.442 22.914zm99.802-22.914h74.658l7.447 22.914h-89.554z" clip-rule="evenodd"/></clipPath></defs><path d="M114.787 109.855H79.926V71.942h-6.772l-.154.475v44.364h48.713V71.942h-6.926zm-27.951-6.927h6.926V71.942h-6.926zm14.116 0h6.926V71.942h-6.926zm11.5-43.453l-4.192-12.467H86.055l-4.188 12.467h-4.66l-2.252 6.927h50.914l2.745-6.927zm-42.572 0h-.002l-2.258 6.927h.009l2.25-6.927zm19.645 0l1.862-5.54h11.475l1.862 5.54z" fill="#e24329" fill-rule="evenodd"/><path d="M29.806 19.472L14.805 59.475l-.844 2.272-7.108 18.95 49.495 36.002L73 104.586v-8.623l-10.024 7.29 10.175-31.31h-7.318l-9.485 29.173-11.273-34.671h11.271v-.043h11.275l2.258-6.927h.001l-2.25 6.927h7.325l2.252-6.927h4.66-4.664l6.15-18.907 2.567 6.842.135-.402h7.152L82.88 19.472 69.879 59.475H42.817L29.806 19.472zm-.464 21.096l6.154 18.907H22.251zm-9.704 25.877h18.12l11.948 36.807-34.462-25.075z" fill="#fca326" fill-rule="evenodd"/><g clip-path="url(#a)" transform="matrix(.30227 0 0 -.30227 -28.323 191.649)"><path d="M142.979 437.272l-8.88-22.914h84.45l-7.442 22.914zm99.802-22.914h74.658l7.447 22.914h-89.554z" fill="url(#b)" fill-rule="evenodd"/></g></svg>